# AST/ASF file generated using VICON BodyLanguage
# -----------------------------------------------
:version 1.10
:name VICON
:units
  mass 1.0
  length 0.45
  angle deg
:documentation
   .ast/.asf automatically generated from VICON data using
   VICON BodyBuilder and BodyLanguage model FoxedUp or BRILLIANT.MOD
:root
   order TX TY TZ RX RY RZ
   axis XYZ
   position 0 0 0  
   orientation 0 0 0 
:bonedata
  begin
     id 1 
     name lhipjoint
     direction 0.645422 -0.672597 0.361999 
     length 2.39934 
     axis 0 0 0  XYZ
  end
  begin
     id 2 
     name lfemur
     direction 0.34202 -0.939693 0  
     length 6.58112  
     axis 0 0 20  XYZ
    dof rx ry rz
    limits (-160.0 20.0)
           (-70.0 70.0)
           (-60.0 70.0)
  end
  begin
     id 3 
     name ltibia
     direction 0.34202 -0.939693 0   
     length 7.02673   
     axis 0 0 20   XYZ
    dof rx
    limits (-10.0 170.0)
  end
  begin
     id 4 
     name lfoot
     direction 0.0835106 -0.229444 0.969733   
     length 2.08772   
     axis -90 7.62852e-016 20   XYZ
    dof rx rz
    limits (-45.0 90.0)
           (-70.0 20.0)
  end
  begin
     id 5 
     name ltoes
     direction 1.5358e-011 -4.21925e-011 1   
     length 1.04844   
     axis -90 7.62852e-016 20   XYZ
    dof rx
    limits (-90.0 20.0)
  end
  begin
     id 6 
     name rhipjoint
     direction -0.644959 -0.672941 0.362185   
     length 2.39812  
     axis 0 0 0  XYZ 
  end
  begin
     id 7 
     name rfemur
     direction -0.34202 -0.939693 0   
     length 6.67015   
     axis 0 0 -20   XYZ
    dof rx ry rz
    limits (-160.0 20.0)
           (-70.0 70.0)
           (-70.0 60.0)
  end
  begin
     id 8 
     name rtibia
     direction -0.34202 -0.939693 0   
     length 7.35735   
     axis 0 0 -20   XYZ
    dof rx
    limits (-10.0 170.0)
 end
 begin
     id 9 
     name rfoot
     direction -0.0670769 -0.184292 0.98058   
     length 2.25469  
     axis -90 -7.62852e-016 -20   XYZ
    dof rx rz
    limits (-45.0 90.0)
           (-20.0 70.0)
  end
  begin
     id 10 
     name rtoes
     direction -1.53575e-011 -4.21908e-011 1   
     length 1.13399   
     axis -90 -7.62852e-016 -20   XYZ
    dof rx
    limits (-90.0 20.0)
  end
  begin
     id 11 
     name lowerback
     direction -0.0188328 0.993434 -0.112847   
     length 2.27656   
     axis 0 0 0   XYZ
    dof rx ry rz
    limits (-20.0 45.0)
           (-30.0 30.0)
           (-30.0 30.0)
  end
  begin
     id 12 
     name upperback
     direction 0.00983139 0.998968 -0.04435   
     length 2.28631   
     axis 0 0 0   XYZ
    dof rx ry rz
    limits (-20.0 45.0)
           (-30.0 30.0)
           (-30.0 30.0)
  end
  begin
     id 13 
     name thorax
     direction 0.0177718 0.999807 0.00833073   
     length 2.30999   
     axis 0 0 0   XYZ
    dof rx ry rz
    limits (-20.0 45.0)
           (-30.0 30.0)
           (-30.0 30.0)
  end
  begin
     id 14 
     name lowerneck
     direction -0.0835025 0.993181 0.0813558   
     length 1.39447   
     axis 0 0 0   XYZ
    dof rx ry rz
    limits (-20.0 45.0)
           (-30.0 30.0)
           (-30.0 30.0)
  end
  begin
     id 15 
     name upperneck
     direction 0.210059 0.976535 0.0474817   
     length 1.39882   
     axis 0 0 0   XYZ
    dof rx ry rz
    limits (-20.0 45.0)
           (-30.0 30.0)
           (-30.0 30.0)
  end
  begin
     id 16
     name head
     direction 0.0780891 0.996944 -0.00207154  
     length 1.41828  
     axis 0 0 0   XYZ
    dof rx ry rz
    limits (-20.0 45.0)
           (-30.0 30.0)
           (-30.0 30.0)
  end
  begin
     id 17 
     name lclavicle
     direction 0.982414 0.166355 -0.0847829  
     length 3.57922  
     axis 0 0 0   XYZ
    dof ry rz
    limits (-20.0 10.0)
           (0.0 20.0)
  end
  begin
     id 18 
     name lhumerus
     direction 1 -4.48975e-011 5.47647e-028   
     length 4.76405   
     axis -180 -30 -90   XYZ
    dof rx ry rz
    limits (-60.0 90.0)
           (-90.0 90.0)
           (-90.0 90.0)
  end
  begin
     id 19
     name lradius
     direction 1 -4.48949e-011 -8.32142e-027   
     length 3.13759   
     axis -180 -30 -90   XYZ
    dof rx
    limits (-10.0 170.0)
  end
  begin
     id 20
     name lwrist
     direction 1 -4.48978e-011 -1.32705e-026   
     length 1.56879   
     axis 9.60836e-015 90 90   XYZ
    dof ry
    limits (-180.0 0.0)
 end
  begin
     id 21 
     name lhand
     direction 1 -4.48975e-011 -2.65409e-026   
     length 0.732262   
     axis 1.69354e-014 90 90   XYZ
    dof rx rz
    limits (-90.0 90.0)
           (-45.0 45.0)
  end
  begin
     id 22 
     name lfingers
     direction 1 -4.48923e-011 -5.30819e-026   
     length 0.590368   
     axis 3.38708e-014 90 90   XYZ
    dof rx
    limits (0.0 90.0)
  end
  begin
     id 23
     name lthumb
     direction 0.707107 -6.34914e-011 0.707107   
     length 0.847654   
     axis -90 45 2.85299e-015   XYZ
    dof rx rz
    limits (-45.0 45.0)
           (-45.0 45.0)
  end
  begin
     id 24 
     name rclavicle
     direction -0.963658 0.245183 -0.106063   
     length 3.43472  
     axis 0 0 0   XYZ 
    dof ry rz
    limits (-10.0 20.0)
           (-20.0 0.0)
  end
  begin
     id 25 
     name rhumerus
     direction -1 -4.48963e-011 -1.64784e-027  
     length 5.10161   
     axis -180 30 90   XYZ
    dof rx ry rz
    limits (-90.0 60.0)
           (-90.0 90.0)
           (-90.0 90.0)
  end
  begin
     id 26 
     name rradius
     direction -1 -4.48969e-011 -2.87943e-027   
     length 3.23267   
     axis -180 30 90   XYZ
    dof rx
    limits (-10.0 170.0)
  end
  begin
     id 27 
     name rwrist
     direction -1 -4.48982e-011 -1.32705e-026   
     length 1.61633   
     axis 9.60836e-015 -90 -90   XYZ
    dof ry
    limits (-180.0 0.0)
  end
  begin
     id 28
     name rhand
     direction -1 -4.48963e-011 -2.65409e-026   
     length 0.702   
     axis 1.69354e-014 -90 -90   XYZ
    dof rx rz
    limits (-90.0 90.0)
           (-45.0 45.0)
  end
  begin
     id 29
     name rfingers
     direction -1 -4.48934e-011 -5.30819e-026   
     length 0.565971   
     axis 3.38708e-014 -90 -90   XYZ
    dof rx
    limits (0.0 90.0)
  end
  begin
     id 30
     name rthumb
     direction -0.707107 -6.34908e-011 0.707107   
     length 0.812624   
     axis -90 -45 -2.85299e-015   XYZ
    dof rx rz
    limits (-45.0 45.0)
           (-45.0 45.0)
  end
:hierarchy
  begin
    root lhipjoint rhipjoint lowerback
    lhipjoint lfemur
    lfemur ltibia
    ltibia lfoot
    lfoot ltoes
    rhipjoint rfemur
    rfemur rtibia
    rtibia rfoot
    rfoot rtoes
    lowerback upperback
    upperback thorax
    thorax lowerneck lclavicle rclavicle
    lowerneck upperneck
    upperneck head
    lclavicle lhumerus
    lhumerus lradius
    lradius lwrist
    lwrist lhand lthumb
    lhand lfingers
    rclavicle rhumerus
    rhumerus rradius
    rradius rwrist
    rwrist rhand rthumb
    rhand rfingers
  end

#!OML:ASF \\sashay\E\basketball\basketball\Project 1\Capture day 1\Session 1\Subject.ASF
:FULLY-SPECIFIED
:DEGREES
1
root -35.1935 12.9273 -7.17932 176.361 45.3751 -176.551
lowerback 36.3001 -1.56306 -16.9139
upperback 15.3464 -4.17178 -1.40902
thorax 0.605328 -1.66187 8.34747
lowerneck -9.70429 -6.75798 -12.3212
upperneck -14.0589 -5.13724 26.2744
head -1.04413 -1.98542 10.3645
rclavicle -2.38542e-014 -2.06736e-014
rhumerus -24.9425 -14.6076 -75.0038
rradius 61.5979
rwrist -16.041
rhand -36.1028 44.6337
rfingers 7.12502
rthumb -9.20897 14.8548
lclavicle -2.38542e-014 -2.06736e-014
lhumerus 35.8521 -9.06402 73.793
lradius 25.5831
lwrist -17.3402
lhand -20.5529 24.4949
lfingers 7.12502
lthumb 5.80598 54.3954
rfemur -46.7354 -7.87622 20.8915
rtibia 97.9334
rfoot -17.2701 -13.9207
rtoes 0.37957
lfemur -53.233 7.38793 -28.3141
ltibia 80.2249
lfoot -14.4659 2.37235
ltoes -4.03242
2
root -34.7553 12.8666 -7.15036 175.2 44.1644 -177.852
lowerback 36.6801 -1.8392 -16.3281
upperback 15.4839 -4.24923 -2.40353
thorax 0.525886 -1.52702 7.00995
lowerneck -9.04894 -6.8451 -12.0803
upperneck -14.5162 -5.18756 26.5774
head -1.26303 -2.06685 10.4529
rclavicle 1.76521e-013 2.70347e-014
rhumerus -27.6866 -17.0363 -75.6578
rradius 62.7506
rwrist -15.9331
rhand -37.213 44.5923
rfingers 7.12502
rthumb -10.2801 14.8635
lclavicle 1.76521e-013 2.70347e-014
lhumerus 37.1103 -11.5461 70.0664
lradius 28.0375
lwrist -15.0525
lhand -19.6858 26.3741
lfingers 7.12502
lthumb 6.64316 56.2499
rfemur -49.5654 -6.60839 17.1544
rtibia 96.0024
rfoot -15.7193 -15.1977
rtoes -9.01002
lfemur -52.4113 6.74207 -27.8462
ltibia 81.7129
lfoot -16.3092 2.22618
ltoes -1.56744
3
root -34.3394 12.8217 -7.13213 173.954 42.8824 -179.897
lowerback 36.7121 -2.17324 -15.7518
upperback 15.4863 -4.38969 -3.64286
thorax 0.399179 -1.40753 5.44598
lowerneck -8.73487 -6.94558 -11.4895
upperneck -14.6185 -5.34252 26.5532
head -1.33982 -2.17905 10.3303
rclavicle -1.90833e-014 2.8625e-014
rhumerus -30.4951 -19.7241 -76.3093
rradius 63.9513
rwrist -16.264
rhand -37.8677 44.241
rfingers 7.12502
rthumb -10.9116 14.5445
lclavicle -1.90833e-014 2.8625e-014
lhumerus 38.3939 -15.1155 64.9024
lradius 31.0588
lwrist -11.4811
lhand -18.6704 29.4034
lfingers 7.12502
lthumb 7.62326 59.246
rfemur -52.2386 -5.70178 12.5065
rtibia 93.107
rfoot -14.3694 -14.8584
rtoes -14.3139
lfemur -51.6782 5.40862 -28.1273
ltibia 82.6643
lfoot -17.7627 3.17368
ltoes -5.21568
4
root -33.9428 12.7944 -7.10199 173.786 41.2729 -180.633
lowerback 37.3065 -3.04784 -15.0361
upperback 15.0807 -5.44038 -4.03354
thorax -0.221473 -1.80323 5.00197
lowerneck -8.78463 -6.54684 -12.6366
upperneck -13.9855 -4.90637 26.1805
head -1.21997 -1.90234 10.4231
rclavicle -3.65764e-014 9.54166e-015
rhumerus -32.4201 -19.4308 -76.416
rradius 64.8769
rwrist -17.7822
rhand -37.8967 43.6405
rfingers 7.12502
rthumb -10.9397 13.9455
lclavicle -3.65764e-014 9.54166e-015
lhumerus 37.9929 -15.9367 61.4654
lradius 34.0432
lwrist -8.47049
lhand -17.5307 31.9393
lfingers 7.12502
lthumb 8.72327 61.739
rfemur -54.2583 -5.07575 8.85358
rtibia 89.4044
rfoot -12.9239 -13.9503
rtoes -19.0395
lfemur -51.2469 3.65409 -27.3638
ltibia 83.5442
lfoot -19.0575 3.7677
ltoes -11.1767
5
root -33.5354 12.7765 -7.05339 173.717 40.4806 -180.992
lowerback 37.8746 -3.44052 -14.0177
upperback 14.7432 -5.74431 -4.68304
thorax -0.954614 -1.78778 3.9389
lowerneck -8.586 -6.18171 -12.5553
upperneck -13.8072 -4.48797 25.5898
head -1.32688 -1.69933 10.2211
rclavicle -3.18055e-015 4.13472e-014
rhumerus -34.3438 -19.8171 -76.9571
rradius 65.9855
rwrist -19.7994
rhand -37.6652 43.334
rfingers 7.12502
rthumb -10.7164 13.6273
lclavicle -3.18055e-015 4.13472e-014
lhumerus 38.5158 -15.9072 59.9204
lradius 35.1174
lwrist -7.64774
lhand -14.8668 29.0359
lfingers 7.12502
lthumb 11.2932 58.7119
rfemur -55.486 -3.57637 5.65056
rtibia 84.7595
rfoot -11.147 -11.8513
rtoes -22.8715
lfemur -50.733 3.14929 -25.9973
ltibia 84.2957
lfoot -20.2671 3.10417
ltoes -11.4375
6
root -33.0872 12.7851 -7.00336 173.537 38.8014 -181.695
lowerback 38.0115 -3.27307 -14.6905
upperback 14.5869 -5.77189 -3.91003
thorax -0.995289 -1.86976 5.09189
lowerneck -8.37536 -5.66677 -13.2654
upperneck -14.0364 -3.82512 24.2386
head -1.61355 -1.35207 9.92507
rclavicle 9.06458e-014 -2.22639e-014
rhumerus -35.463 -19.1268 -76.0055
rradius 67.0755
rwrist -21.9009
rhand -37.2126 43.1897
rfingers 7.12502
rthumb -10.2798 13.4609
lclavicle 9.06458e-014 -2.22639e-014
lhumerus 38.5296 -16.2699 59.0649
lradius 37.6077
lwrist -5.27943
lhand -11.5541 29.9897
lfingers 7.12502
lthumb 14.4867 59.464
rfemur -55.3055 -2.48874 1.87589
rtibia 79.2638
rfoot -9.3706 -9.20387
rtoes -27.7831
lfemur -50.0146 2.02119 -24.7858
ltibia 84.7264
lfoot -21.2456 1.45204
ltoes -9.06007
7
root -32.6583 12.845 -6.95298 173.493 37.3831 -181.939
lowerback 38.1143 -3.14626 -14.9143
upperback 14.6183 -5.62998 -3.26825
thorax -0.922442 -1.84022 5.83858
lowerneck -8.36381 -5.10437 -13.7842
upperneck -14.2495 -3.06314 23.0356
head -1.87324 -0.936033 9.64375
rclavicle 1.27222e-014 -4.45278e-014
rhumerus -35.8764 -18.4883 -75.4837
rradius 67.9107
rwrist -23.401
rhand -36.8909 43.0746
rfingers 7.12502
rthumb -9.96941 13.3307
lclavicle 1.27222e-014 -4.45278e-014
lhumerus 38.6422 -17.1148 57.1951
lradius 40.8877
lwrist -1.16824
lhand -8.17721 32.8476
lfingers 7.12502
lthumb 17.7383 62.0585
rfemur -54.7319 -0.469256 -1.83294
rtibia 73.2591
rfoot -7.15593 -5.99186
rtoes -26.8808
lfemur -48.9602 0.92473 -23.2228
ltibia 84.7135
lfoot -21.8404 -0.0130633
ltoes -7.33412
8
root -32.2254 12.8983 -6.9092 173.727 35.8195 -181.593
lowerback 38.156 -3.29838 -14.3829
upperback 14.7856 -5.52558 -2.77497
thorax -0.799651 -1.78294 6.07286
lowerneck -8.40011 -4.57651 -14.1709
upperneck -14.3942 -2.32461 22.1823
head -2.08177 -0.529212 9.45244
rclavicle -3.81667e-014 -6.36111e-015
rhumerus -35.6554 -17.8466 -75.3195
rradius 68.4504
rwrist -24.3488
rhand -37.2083 43.2027
rfingers 7.12502
rthumb -10.2756 13.4738
lclavicle -3.81667e-014 -6.36111e-015
lhumerus 39.1754 -17.1623 56.3094
lradius 43.3905
lwrist 2.45932
lhand -4.8219 34.5705
lfingers 7.12502
lthumb 20.9645 63.4575
rfemur -53.2639 1.97939 -5.24477
rtibia 66.9385
rfoot -4.14487 -3.83285
rtoes -27.3534
lfemur -47.9946 -0.250718 -21.2248
ltibia 84.582
lfoot -22.1933 -1.04615
ltoes -8.43977
9
root -31.7791 12.9523 -6.8656 173.908 34.0503 -181.119
lowerback 38.2555 -3.5789 -13.6457
upperback 14.9448 -5.51205 -2.36798
thorax -0.72586 -1.74375 6.14184
lowerneck -8.61106 -4.0097 -14.5862
upperneck -14.2054 -1.54119 21.5784
head -2.16025 -0.089679 9.33977
rclavicle -3.02153e-014 6.52014e-014
rhumerus -35.0584 -17.0382 -75.3666
rradius 68.7981
rwrist -24.7287
rhand -37.5099 43.5956
rfingers 7.12502
rthumb -10.5665 13.8812
lclavicle -3.02153e-014 6.52014e-014
lhumerus 38.6105 -18.682 52.4132
lradius 48.5507
lwrist 7.73967
lhand -11.1967 47.0313
lfingers 7.12502
lthumb 14.831 76.4805
rfemur -51.1229 4.6063 -8.49408
rtibia 60.6505
rfoot -0.406215 -2.74879
rtoes -21.7261
lfemur -46.8754 -1.51713 -19.0852
ltibia 84.2795
lfoot -22.5895 -1.5903
ltoes -14.1777
10
root -31.3295 13.0295 -6.81759 174.045 32.1091 -180.784
lowerback 38.2207 -3.86381 -13.0575
upperback 15.0712 -5.54902 -1.92934
thorax -0.611861 -1.74304 6.32821
lowerneck -9.07599 -3.30094 -14.95
upperneck -13.6007 -0.619532 20.7886
head -2.10956 0.426453 9.14118
rclavicle -3.33958e-014 1.11319e-013
rhumerus -34.2028 -16.0783 -75.3737
rradius 69.1555
rwrist -24.774
rhand -37.0175 43.7506
rfingers 7.12502
rthumb -10.0915 14.0126
lclavicle -3.33958e-014 1.11319e-013
lhumerus 38.322 -18.7896 50.4056
lradius 52.7796
lwrist 8.64249
lhand -12.3875 60.3277
lfingers 7.12502
lthumb 13.6836 89.8578
rfemur -48.8888 7.21798 -11.6624
rtibia 55.1033
rfoot 2.88805 -2.22323
rtoes -15.8009
lfemur -45.6616 -2.83716 -17.0982
ltibia 83.6943
lfoot -22.7955 -2.69575
ltoes -15.7686
11
root -30.8498 13.0579 -6.7775 174.45 30.0851 -180.293
lowerback 37.8788 -4.16422 -12.3361
upperback 15.1315 -5.56966 -1.39709
thorax -0.486288 -1.74923 6.53847
lowerneck -9.48466 -2.47147 -15.115
upperneck -13.02 0.416522 19.583
head -2.10397 0.98377 8.76411
rclavicle 1.145e-013 5.08889e-014
rhumerus -33.3196 -15.0451 -75.2169
rradius 69.6261
rwrist -24.6081
rhand -36.5817 43.5666
rfingers 7.12502
rthumb -9.67103 13.8086
lclavicle 1.145e-013 5.08889e-014
lhumerus 37.9728 -18.2993 49.0344
lradius 56.3409
lwrist 8.43641
lhand -10.4806 73.0631
lfingers 7.12502
lthumb 15.5208 257.54
rfemur -46.5592 9.27801 -13.8216
rtibia 50.4769
rfoot 5.63685 0.618275
rtoes -34.8303
lfemur -44.9105 -3.98863 -14.8659
ltibia 83.2256
lfoot -23.2399 -3.73
ltoes -17.5769
12
root -30.3578 13.0832 -6.73565 175.171 28.3293 -179.434
lowerback 37.0677 -4.41572 -11.3995
upperback 15.2649 -5.45098 -0.880325
thorax -0.31939 -1.69972 6.61603
lowerneck -9.82286 -1.51391 -15.0909
upperneck -12.5749 1.6319 18.2832
head -2.16766 1.61825 8.32548
rclavicle 2.06736e-014 7.95139e-014
rhumerus -32.4571 -13.8743 -75.1705
rradius 70.0702
rwrist -24.2005
rhand -36.5307 43.6113
rfingers 7.12502
rthumb -9.62185 13.8511
lclavicle 2.06736e-014 7.95139e-014
lhumerus 37.9555 -17.7352 47.8027
lradius 58.7065
lwrist 10.3955
lhand -1.69971 38.8115
lfingers 7.12502
lthumb 23.9614 427.336
rfemur -44.6863 11.4714 -15.2897
rtibia 47.0786
rfoot 7.91674 1.8456
rtoes -32.1592
lfemur -44.2627 -4.75078 -12.1391
ltibia 82.5338
lfoot -24.075 -4.25895
ltoes -22.402
13
root -29.8627 13.1259 -6.68693 175.948 26.5232 -178.687
lowerback 36.1012 -4.58452 -10.628
upperback 15.192 -5.35456 -0.353799
thorax -0.157522 -1.67597 6.74017
lowerneck -10.3058 -0.505535 -15.3179
upperneck -11.8434 2.94752 17.3324
head -2.12257 2.30695 8.0486
rclavicle -4.77083e-014 2.8625e-014
rhumerus -31.8374 -12.5367 -75.177
rradius 70.6339
rwrist -23.7884
rhand -36.5894 43.7551
rfingers 7.12502
rthumb -9.67846 13.9974
lclavicle -4.77083e-014 2.8625e-014
lhumerus 38.4379 -17.6255 46.4057
lradius 59.7214
lwrist 15.6909
lhand 1.5258 37.282
lfingers 7.12502
lthumb 27.051 425.364
rfemur -42.9559 12.9345 -16.0212
rtibia 44.8617
rfoot 9.15106 5.07705
rtoes -34.2302
lfemur -43.7335 -5.21475 -9.41954
ltibia 81.5297
lfoot -24.4345 -6.22512
ltoes -21.2296
14
root -29.3534 13.1748 -6.62936 176.822 24.2776 -177.803
lowerback 35.0805 -4.8094 -9.74577
upperback 15.0286 -5.32618 0.310312
thorax -0.0572143 -1.68577 6.96763
lowerneck -10.9538 0.443835 -15.9497
upperneck -11.0326 4.25406 16.556
head -2.024 3.0039 7.90408
rclavicle 3.81667e-014 8.74653e-015
rhumerus -31.5128 -11.3053 -75.0721
rradius 71.4258
rwrist -23.5818
rhand -37.0094 43.7646
rfingers 7.12502
rthumb -10.0837 14.0262
lclavicle 3.81667e-014 8.74653e-015
lhumerus 39.0155 -18.2997 44.1272
lradius 60.5059
lwrist 23.2154
lhand 0.0567336 43.2772
lfingers 7.12502
lthumb 25.6447 431.57
rfemur -40.9154 13.4549 -15.6723
rtibia 43.6781
rfoot 10.9787 6.56708
rtoes -33.1531
lfemur -43.4982 -5.2212 -6.54003
ltibia 80.2958
lfoot -24.4751 -8.64577
ltoes -20.4077
